<?xml version="1.0" encoding="UTF-8"?>
<svg width="300px" height="62px" viewBox="0 0 300 62" version="1.1" xmlns="http://www.w3.org/2000/svg" xmlns:xlink="http://www.w3.org/1999/xlink">
    <defs></defs>
    <g id="Page-1" stroke="none" stroke-width="1" fill="none" fill-rule="evenodd">
      <g id="blip" fill="#FFB41A">
        <path d="M25.6206584,51.3633244 C25.6206584,42.4589075 32.9058022,35.2090845 41.8628142,35.2090845 C50.812779,35.2090845 58.0982583,42.4589075 58.0982583,51.3633244 C58.0966301,54.5100502 57.1669738,57.5855105 55.4270278,60.200207 L63.2460821,60.200207 C64.4350056,57.3887135 65.0479274,54.3647348 65.048156,51.3092969 C65.048156,41.1014651 58.3029632,32.5212134 49.0543307,29.4922934 L42.067519,33.8854093 L34.9464747,29.4078754 C25.5501862,32.355754 18.6727743,41.0001634 18.6727743,51.3092969 C18.6722697,54.3646394 19.2846281,57.3886539 20.4731702,60.200207 L28.2952448,60.200207 C26.5558309,57.5850876 25.6252669,54.5101013 25.620994,51.3633244 L25.6206584,51.3633244 Z M74.6830431,51.3092969 C74.6760207,54.3180794 74.2490161,57.3109551 73.4145441,60.200207 L80.5657908,60.200207 C81.2647239,57.2690896 81.6228416,54.2661849 81.6329407,51.2518926 C81.6329407,38.1299493 75.1528575,26.517401 65.2397731,19.3182289 L58.776469,23.3804259 C68.2868553,29.1039704 74.6830431,39.4637547 74.6830431,51.3092969 L74.6830431,51.3092969 Z M9.03990067,51.3092969 C9.03990067,39.3759599 15.5270311,28.9486411 25.1568845,23.2554872 L18.6714319,19.1764065 C8.64961911,26.3654485 2.09134535,38.0455313 2.09134535,51.2518926 C2.10089143,54.2659997 2.45776104,57.2688263 3.15480385,60.200207 L10.3077284,60.200207 C9.47374274,57.3108495 9.04674802,54.3180432 9.0392295,51.3092969 L9.03990067,51.3092969 Z M10.0174503,13.7365067 L3.8977818,9.89041991 C2.61049028,11.0621426 1.38002394,12.290144 0.206382765,13.5744241 L0.206382765,24.9337182 C2.89841946,20.7258112 6.20625978,16.9508852 10.0181214,13.7365067 L10.0174503,13.7365067 Z M48.4673982,51.3633244 C48.4974665,48.6690708 46.907843,46.223184 44.4427853,45.170822 C41.9777276,44.1184601 39.1251416,44.6679157 37.2206009,46.5619352 C35.3160602,48.4559546 34.7365281,51.319657 35.7533401,53.812264 C36.7701521,56.3048711 39.1820518,57.9330242 41.859794,57.9344262 C45.4858957,57.9512734 48.4415359,55.0119611 48.4673982,51.3633244 L48.4673982,51.3633244 Z M83.9249639,25.605686 L83.9249639,14.0269049 C82.6799557,12.6323185 81.371187,11.3086433 79.991946,10.0423724 L73.8742911,13.8884592 C77.8133831,17.2407623 81.2049128,21.1946591 83.9249639,25.605686 L83.9249639,25.605686 Z M83.7202591,0.0033767224 L0.00201349039,0.0033767224 L41.8624786,26.3181744 L83.7202591,0.0033767224 Z" id="Shape"></path>
      </g>
      <g id="mark" transform="translate(103.023591, 0.000000)" fill="#54575B">
        <path d="M0.328870096,0.384946354 L7.87274741,0.384946354 C14.7756636,0.384946354 19.3328635,4.50454768 19.3328635,11.6226785 C19.3328635,18.7779533 14.7756636,22.9313218 7.87274741,22.9313218 L0.328870096,22.9313218 L0.328870096,0.384946354 Z M7.64790765,20.1826698 C12.7219034,20.1826698 16.0609416,17.2145308 16.0609416,11.6226785 C16.0609416,6.10173738 12.6883452,3.13022167 7.64790765,3.13022167 L3.51018491,3.13022167 L3.51018491,20.1826698 L7.64790765,20.1826698 Z M36.830095,0.384946354 L40.0114098,0.384946354 L40.0114098,22.9313218 L36.830095,22.9313218 L36.830095,0.384946354 Z M69.0325179,0 C71.9520789,0 75.0025169,0.834050433 77.2811168,2.74527531 L75.6770361,5.07859049 C74.1669184,3.80218942 71.5661599,2.87696749 69.2540018,2.87696749 C63.9551663,2.87696749 60.7470049,6.77032841 60.7470049,11.5618975 C60.7470049,16.7654267 64.3410853,20.4089102 69.0627202,20.4089102 C71.4891296,20.3672834 73.7991852,19.3551226 75.4823987,17.5961004 L75.4823987,14.3375633 L71.8245579,14.3375633 L71.8245579,11.592288 L78.4019598,11.592288 L78.4019598,22.9279451 L75.6132756,22.9279451 L75.6132756,21.5232286 C75.6132756,21.0471107 75.643478,20.5676161 75.643478,20.5676161 L75.5797174,20.5676161 C74.0393973,22.1614291 71.4084365,23.3128915 68.6130407,23.3128915 C62.5155207,23.3128915 57.4750831,18.5246991 57.4750831,11.6260552 C57.4750831,5.11235771 62.418202,7.67777783e-14 69.0325179,7.67777783e-14 L69.0325179,0 Z M96.160945,0.384946354 L99.338904,0.384946354 L99.338904,22.9313218 L96.160945,22.9313218 L96.160945,0.384946354 Z M123.480654,3.13022167 L115.678378,3.13022167 L115.678378,0.384946354 L134.42733,0.384946354 L134.42733,3.13022167 L126.62841,3.13022167 L126.62841,22.9313218 L123.480654,22.9313218 L123.480654,3.13022167 L123.480654,3.13022167 Z M154.491761,0.384946354 L157.861002,0.384946354 L165.98208,22.9313218 L162.710158,22.9313218 L160.428202,16.4480148 L151.891003,16.4480148 L149.612403,22.9313218 L146.367328,22.9313218 L154.491761,0.384946354 Z M159.592604,13.8276782 L157.09252,6.70617069 C156.706601,5.52431785 156.193161,3.4814008 156.193161,3.4814008 L156.1294,3.4814008 C156.1294,3.4814008 155.646163,5.52431785 155.263599,6.70617069 L152.726602,13.8276782 L159.592604,13.8276782 Z M182.294708,0.384946354 L185.472667,0.384946354 L185.472667,20.1826698 L195.650861,20.1826698 L195.650861,22.9313218 L182.294708,22.9313218 L182.294708,0.384946354 L182.294708,0.384946354 Z M0.328870096,38.7073689 L3.51018491,38.7073689 L3.51018491,48.1925821 L6.87942548,48.1925821 L12.6245847,38.7073689 L16.1247022,38.7073689 L9.51038625,49.4048254 L9.51038625,49.4656064 L16.5408235,61.2537443 L12.913185,61.2537443 L6.87942548,50.9378574 L3.51018491,50.9378574 L3.51018491,61.2537443 L0.328870096,61.2537443 L0.328870096,38.7073689 L0.328870096,38.7073689 Z M38.501292,38.7039922 L41.8705326,38.7039922 L49.9916105,61.2503676 L46.7196886,61.2503676 L44.4377328,54.7704373 L35.9005336,54.7704373 L33.6185778,61.2503676 L30.3768583,61.2503676 L38.501292,38.7039922 Z M43.6021343,52.1501008 L41.0986946,45.0285932 C40.7161314,43.8467404 40.2026914,41.8038233 40.2026914,41.8038233 L40.1389308,41.8038233 C40.1389308,41.8038233 39.659049,43.8467404 39.27313,45.0285932 L36.7361321,52.1501008 L43.6021343,52.1501008 Z M66.4317595,56.2697021 C67.8110004,57.5798704 69.9956374,58.6941888 72.1467163,58.6941888 C74.522635,58.6941888 76.1267157,57.4177877 76.1267157,55.4694189 C76.1267157,50.4887533 65.1800396,51.6064485 65.1800396,44.5828659 C65.1800396,40.7806764 68.3882009,38.3257992 72.59304,38.3257992 C74.8447934,38.3257992 77.2509145,39.058548 78.9187557,40.6219705 L77.4757542,43.2085398 C76.0891917,41.9783129 74.3168597,41.2778729 72.4688748,41.2297805 C70.1567167,41.2297805 68.3882009,42.4724144 68.3882009,44.4241599 C68.3882009,49.2461195 79.3046747,47.9663417 79.3046747,55.2161647 C79.3046747,58.7617232 76.7039162,61.635314 72.0829558,61.635314 C69.3137964,61.642949 66.6477057,60.5790575 64.6363972,58.6637983 L66.4317595,56.2697021 Z M101.939662,41.4526442 L94.1373872,41.4526442 L94.1373872,38.7073689 L112.886338,38.7073689 L112.886338,41.4526442 L105.084063,41.4526442 L105.084063,61.2537443 L101.939662,61.2537443 L101.939662,41.4526442 L101.939662,41.4526442 Z M129.225813,38.7073689 L142.417531,38.7073689 L142.417531,41.4526442 L132.403772,41.4526442 L132.403772,48.509994 L140.52485,48.509994 L140.52485,51.2552693 L132.403772,51.2552693 L132.403772,58.5050923 L142.964529,58.5050923 L142.964529,61.2537443 L129.225813,61.2537443 L129.225813,38.7073689 L129.225813,38.7073689 Z M160.17316,38.7073689 L163.320917,38.7073689 L173.431994,53.3319536 C174.234035,54.5779642 175.294473,56.6208812 175.294473,56.6208812 L175.358233,56.6208812 C175.358233,56.6208812 175.166952,54.6083547 175.166952,53.3319536 L175.166952,38.7073689 L178.311353,38.7073689 L178.311353,61.2537443 L175.197154,61.2537443 L165.082721,46.6257829 C164.284036,45.3797723 163.223598,43.3368553 163.223598,43.3368553 L163.159838,43.3368553 C163.159838,43.3368553 163.351119,45.3460051 163.351119,46.6257829 L163.351119,61.2537443 L160.17316,61.2537443 L160.17316,38.7073689 Z" id="Shape_4_copy_2"></path>
      </g>
    </g>
</svg>
