
<svg width="66px" height="63px" viewBox="0 0 66 63" version="1.1" xmlns="http://www.w3.org/2000/svg" xmlns:xlink="http://www.w3.org/1999/xlink">
    <!-- Generator: Sketch 46.2 (44496) - http://www.bohemiancoding.com/sketch -->
    <desc>Created with Sketch.</desc>
    <defs></defs>
    <g id="Page-1" stroke="none" stroke-width="1" fill="none" fill-rule="evenodd" stroke-linecap="round" stroke-linejoin="round">
        <g id="Group-7" transform="translate(2.000000, 2.000000)" stroke-width="3">
            <path d="M58.218496,22.446108 L58.218496,53.556468 C58.218496,56.543628 55.795536,58.966588 52.808376,58.966588 L38.209856,58.966588 L23.105416,58.966588 L8.506896,58.966588 C5.518496,58.966588 3.096776,56.543628 3.096776,53.556468 L3.096776,22.446108 L58.218496,22.446108 Z" id="Stroke-1" stroke="#1B1F28"></path>
            <path d="M16.3560547,58.966836 L16.3560547,43.087396 C16.3560547,39.185116 19.5205347,36.019396 23.4240547,36.019396 C27.3275747,36.019396 30.4920547,39.185116 30.4920547,43.087396 L30.4920547,58.966836" id="Stroke-3" stroke="#1C2029"></path>
            <path d="M45.024152,0.014756 L16.585992,0.014756 C13.662072,0.014756 10.955152,1.558556 9.465912,4.074516 L0.344472,19.492676 C-0.507408,20.750036 0.392832,22.446356 1.909352,22.446356 L59.699552,22.446356 C61.217312,22.446356 62.117552,20.750036 61.265672,19.492676 L52.144232,4.074516 C50.654992,1.558556 47.948072,0.014756 45.024152,0.014756 Z" id="Stroke-5" stroke="#222732"></path>
            <path d="M49.1060253,43.4 L41.1737453,43.4" id="Stroke-7" stroke="#191D25"></path>
        </g>
    </g>
</svg>