
<svg width="59px" height="54px" viewBox="0 0 59 54" version="1.1" xmlns="http://www.w3.org/2000/svg" xmlns:xlink="http://www.w3.org/1999/xlink">
    <!-- Generator: Sketch 46.2 (44496) - http://www.bohemiancoding.com/sketch -->
    <desc>Created with Sketch.</desc>
    <defs></defs>
    <g id="Page-1" stroke="none" stroke-width="1" fill="none" fill-rule="evenodd" stroke-linecap="round" stroke-linejoin="round">
        <g id="Group-3" transform="translate(2.000000, 2.000000)" stroke="#222831" stroke-width="3">
            <path d="M46.0085977,49.5832768 L8.70152206,49.5832768 C5.6924287,49.5832768 3.17340799,47.3057412 2.8656329,44.3132203 L0.0246320928,16.1162873 C-0.257100487,13.3510465 1.91389763,10.9480334 4.69334342,10.9480334 L50.0167763,10.9480334 C52.7962221,10.9480334 54.9672202,13.3510465 54.6854876,16.1162873 L51.8421193,44.3132203 C51.5367117,47.3057412 49.017691,49.5832768 46.0085977,49.5832768 Z" id="Stroke-1"></path>
            <path d="M44.8608333,3.64831854 L24.5737201,3.64831854 L21.2497491,1.01565779 C20.4211239,0.357492602 19.3936286,0 18.3353558,0 L9.84786588,0 C7.25782015,0 5.15547955,2.1023406 5.15547955,4.69001883 L5.15547955,10.9473231 L49.5532197,10.9473231 L49.5532197,8.33833737 C49.5532197,5.75065913 47.4532466,3.64831854 44.8608333,3.64831854 Z" id="Stroke-3"></path>
        </g>
    </g>
</svg>