
<svg width="59px" height="52px" viewBox="0 0 59 52" version="1.1" xmlns="http://www.w3.org/2000/svg" xmlns:xlink="http://www.w3.org/1999/xlink">
    <!-- Generator: Sketch 46.2 (44496) - http://www.bohemiancoding.com/sketch -->
    <desc>Created with Sketch.</desc>
    <defs></defs>
    <g id="Page-1" stroke="none" stroke-width="1" fill="none" fill-rule="evenodd" stroke-linecap="round" stroke-linejoin="round">
        <g id="Group-6" transform="translate(2.000000, 2.000000)" stroke-width="3">
            <path d="M54.8959981,21.9084302 L46.531017,3.64656226 C45.1064132,1.43203396 42.7206585,0.103316981 40.1682434,0.103316981 L14.8313,0.103316981 C12.2788849,0.103316981 9.89313019,1.43203396 8.47080943,3.64656226 L0.103545283,21.9084302" id="Stroke-1" stroke="#1A1F27"></path>
            <path d="M36.3298038,21.9084302 C36.3298038,21.9495245 36.3343698,21.9860528 36.3343698,22.0271472 C36.3343698,27.1228453 32.3801811,31.2551094 27.4990868,31.2551094 C22.6202755,31.2551094 18.6660868,27.1228453 18.6660868,22.0271472 C18.6660868,21.9860528 18.6706528,21.9495245 18.6706528,21.9084302 L0.102860377,21.9084302 L0.102860377,39.3347132 C0.102860377,44.3048453 3.96116226,48.3320906 8.71897358,48.3320906 L46.2792,48.3320906 C51.0392943,48.3320906 54.8953132,44.3048453 54.8953132,39.3347132 L54.8953132,21.9084302 L36.3298038,21.9084302 Z" id="Stroke-3" stroke="#222832"></path>
        </g>
    </g>
</svg>