
<svg width="72px" height="55px" viewBox="0 0 72 55" version="1.1" xmlns="http://www.w3.org/2000/svg" xmlns:xlink="http://www.w3.org/1999/xlink">
    <!-- Generator: Sketch 46.2 (44496) - http://www.bohemiancoding.com/sketch -->
    <desc>Created with Sketch.</desc>
    <defs></defs>
    <g id="Page-1" stroke="none" stroke-width="1" fill="none" fill-rule="evenodd">
        <g id="Group-7" transform="translate(2.000000, 2.000000)">
            <path d="M49.6506771,51 L5.14115217,51 C2.3006656,51 0,48.6936937 0,45.8519949 L0,5.14800515 C0,2.30630631 2.3006656,0 5.14115217,0 L50.8588478,0 C53.6993344,0 56,2.30630631 56,5.14800515 L56,20.0514801" id="Stroke-1" stroke="#242B3A" stroke-width="3" stroke-linecap="round" stroke-linejoin="round"></path>
            <path d="M54,1 L34.2400514,24.0734178 C30.8983143,27.9772938 24.9962925,27.9746435 21.6545553,24.0707675 L2,1.09276012" id="Stroke-3" stroke="#242B3A" stroke-width="3" stroke-linecap="round" stroke-linejoin="round"></path>
            <path d="M68,31.5 C68,37.8505556 62.8505556,43 56.5,43 C50.1494444,43 45,37.8505556 45,31.5 C45,25.1494444 50.1494444,20 56.5,20 C62.8505556,20 68,25.1494444 68,31.5 Z" id="Stroke-5" stroke="#242B3A" stroke-width="3" stroke-linecap="round" stroke-linejoin="round"></path>
            <path d="M56,25 L56,32" id="Stroke-7" stroke="#242B3A" stroke-width="3" stroke-linecap="round" stroke-linejoin="round"></path>
            <path d="M56.5,38 C55.6696429,38 55,37.327381 55,36.5 C55,35.672619 55.6696429,35 56.5,35 C57.327381,35 58,35.672619 58,36.5 C58,37.327381 57.327381,38 56.5,38 Z" id="Fill-9" fill="#242B3A"></path>
            <path d="M56,43 L55.5850527,45.8489815 C55.5850527,48.6923437 53.5332416,51 51,51" id="Stroke-11" stroke="#242B3A" stroke-width="3" stroke-linecap="round" stroke-linejoin="round"></path>
        </g>
    </g>
</svg>