
<svg width="521px" height="376px" viewBox="0 0 521 376" version="1.1" xmlns="http://www.w3.org/2000/svg" xmlns:xlink="http://www.w3.org/1999/xlink">
    <!-- Generator: Sketch 47.1 (45422) - http://www.bohemiancoding.com/sketch -->
    <desc>Created with Sketch.</desc>
    <defs></defs>
    <g id="Page-1" stroke="none" stroke-width="1" fill="none" fill-rule="evenodd">
        <g id="Group" transform="translate(3.000000, 3.000000)">
            <path d="M360.740184,69.2340426 L239.3521,69.2340426 L220.91182,54.625 C214.705624,49.7074468 206.926589,47 199.006503,47 L147.257155,47 C127.816219,47 112,62.8058511 112,82.2367021 L112,120.351064 C112,124.023936 114.978016,127 118.653298,127 L389.346702,127 C393.019323,127 396,124.023936 396,120.351064 L396,104.468085 C396,85.0398936 380.18112,69.2340426 360.740184,69.2340426" id="Fill-1" fill="#B8C4C9"></path>
            <path d="M399,125.779568 C397.950061,119.073654 395.020864,112.728931 390.393158,107.608534 C383.72671,100.230701 374.200175,96 364.253664,96 L180.838622,96 C180.822674,96.0717068 180.817358,96.1487252 180.804067,96.2230878 L141.746336,96.2230878 C131.799825,96.2230878 122.27329,100.451133 115.606842,107.831622 C110.979136,112.949363 108.049939,119.294086 107,126 L292.703643,126 C293.264497,126 293.798769,125.909703 294.32241,125.779568 L399,125.779568 Z" id="Fill-3" fill="#A8B6BA"></path>
            <path d="M443,351.5 C443,363.373944 357.711175,373 252.5,373 C147.288825,373 62,363.373944 62,351.5 C62,339.626056 147.288825,330 252.5,330 C357.711175,330 443,339.626056 443,351.5" id="Fill-5" fill-opacity="0.5" fill="#CFD7DB"></path>
            <path d="M367.283075,358 L139.715012,358 C117.878829,358 99.7352556,341.607586 97.5122353,319.868256 L80.1833258,152.901678 C79.1663273,142.975117 82.4143331,133.045891 89.0887187,125.644928 C95.7657666,118.243965 105.310111,114 115.269775,114 L391.728312,114 C401.690638,114 411.23232,118.243965 417.909368,125.644928 C424.586416,133.045891 427.83176,142.975117 426.817424,152.893686 L409.488514,319.876249 C407.265494,341.607586 389.121921,358 367.283075,358" id="Fill-7" fill="#CFD7DB"></path>
            <path d="M115.938997,127 C109.652981,127 103.869528,129.583819 99.657578,134.273169 C95.4456285,138.959847 93.4779248,145.001226 94.118758,151.285756 L111.426573,318.747656 C112.950214,333.716168 125.386634,345 140.354477,345 L367.645528,345 C382.613371,345 395.047132,333.716168 396.573432,318.755672 L413.881247,151.27774 C414.52208,145.001226 412.554377,138.959847 408.339768,134.273169 C404.127818,129.583819 398.347024,127 392.061008,127 L115.938997,127 Z" id="Fill-9" fill="#FFFFFF"></path>
            <path d="M391.82848,127 L363.674251,127 C370.02689,127 375.868953,129.583819 380.125543,134.273169 C384.384821,138.959847 386.37338,145.003898 385.725755,151.27774 L368.2345,318.755672 C366.692023,333.71884 354.126482,345 339,345 L367.154229,345 C382.280711,345 394.848939,333.71884 396.388729,318.755672 L413.879983,151.27774 C414.527609,145.003898 412.53905,138.959847 408.282459,134.273169 C404.025869,129.583819 398.181119,127 391.82848,127 Z" id="Fill-11" fill-opacity="0.5" fill="#CFD7DB"></path>
            <path d="M457,161 L513,161" id="Stroke-13" stroke="#CFD7DB" stroke-width="10" stroke-linecap="round"></path>
            <path d="M447,113 L495,85" id="Stroke-15" stroke="#CFD7DB" stroke-width="10" stroke-linecap="round"></path>
            <path d="M415,77 L443,29" id="Stroke-17" stroke="#CFD7DB" stroke-width="10" stroke-linecap="round"></path>
            <polygon id="Stroke-19" stroke="#F5A824" stroke-width="5" stroke-linecap="round" stroke-linejoin="round" points="13.5 140 18.2736 148.7264 27 153.5 18.2736 158.2736 13.5 167 8.7264 158.2736 0 153.5 8.7264 148.7264"></polygon>
            <polygon id="Stroke-21" stroke="#49E686" stroke-width="5" stroke-linecap="round" stroke-linejoin="round" points="310.5 0 315.2736 8.7264 324 13.5 315.2736 18.2736 310.5 27 305.7264 18.2736 297 13.5 305.7264 8.7264"></polygon>
            <polygon id="Stroke-23" stroke="#F5A824" stroke-width="5" stroke-linecap="round" stroke-linejoin="round" points="481.5 261 486.2736 269.7264 495 274.5 486.2736 279.2736 481.5 288 476.7264 279.2736 468 274.5 476.7264 269.7264"></polygon>
            <path d="M225,173 L284,173" id="Stroke-25" stroke="#FFB400" stroke-width="7" stroke-linecap="round" stroke-linejoin="round"></path>
        </g>
    </g>
</svg>