
<svg width="493px" height="358px" viewBox="0 0 493 358" version="1.1" xmlns="http://www.w3.org/2000/svg" xmlns:xlink="http://www.w3.org/1999/xlink">
    <!-- Generator: Sketch 46.2 (44496) - http://www.bohemiancoding.com/sketch -->
    <desc>Created with Sketch.</desc>
    <defs></defs>
    <g id="Page-1" stroke="none" stroke-width="1" fill="none" fill-rule="evenodd">
        <g id="Group-10" transform="translate(3.000000, 3.000000)">
            <polygon id="Stroke-1" stroke="#F5A824" stroke-width="5" stroke-linecap="round" stroke-linejoin="round" points="473 230 477.9504 239.0496 487 244 477.9504 248.9504 473 258 468.0496 248.9504 459 244 468.0496 239.0496"></polygon>
            <polygon id="Stroke-3" stroke="#F5A824" stroke-width="5" stroke-linecap="round" stroke-linejoin="round" points="61 0 65.9504 9.0496 75 14 65.9504 18.9504 61 28 56.0496 18.9504 47 14 56.0496 9.0496"></polygon>
            <polygon id="Stroke-5" stroke="#49E686" stroke-width="5" stroke-linecap="round" stroke-linejoin="round" points="14 101 18.9504 110.0496 28 115 18.9504 119.9504 14 129 9.0496 119.9504 0 115 9.0496 110.0496"></polygon>
            <path d="M376,122 L418,102" id="Stroke-7" stroke="#CFD7DB" stroke-width="10" stroke-linecap="round"></path>
            <path d="M350,91 L377,51" id="Stroke-9" stroke="#CFD7DB" stroke-width="10" stroke-linecap="round"></path>
            <path d="M310,74 L313.805,27" id="Stroke-11" stroke="#CFD7DB" stroke-width="10" stroke-linecap="round"></path>
            <path d="M379.874462,196.604504 C379.839339,196.434178 379.776619,196.278881 379.726443,196.113565 C379.661215,195.885629 379.611039,195.655188 379.515706,195.432262 C379.392775,195.131687 379.227196,194.85115 379.059107,194.575623 C379.01144,194.502984 378.986352,194.420326 378.936177,194.347687 L334.774069,128.652008 C326.081136,115.719768 311.577862,108 295.980757,108 L137.019248,108 C121.419635,108 106.918869,115.719768 98.2234273,128.652008 L54.0638286,194.347687 C54.0111441,194.422831 53.9860563,194.505489 53.9383894,194.580633 C53.770301,194.853655 53.6072301,195.131687 53.4817909,195.432262 C53.388966,195.657693 53.3362815,195.888134 53.2685444,196.118575 C53.2233863,196.281386 53.1581579,196.436683 53.1255437,196.604504 C53.0402451,197.022804 52.9975958,197.446114 53.0001046,197.866919 L53.0001046,282.18823 C53.0001046,312.964606 78.0753909,338 108.898299,338 L324.101706,338 C354.924615,338 379.999901,312.964606 379.999901,282.18823 L379.999901,197.866919 C380.00241,197.446114 379.957251,197.022804 379.874462,196.604504" id="Fill-13" fill="#B8C4C9"></path>
            <path d="M370.999896,292.951026 L370.999896,208.744542 C371.002402,208.321808 370.959795,207.901576 370.874582,207.481344 C370.844507,207.313752 370.776838,207.156165 370.731725,206.993575 C370.664056,206.763448 370.611425,206.535822 370.518693,206.3132 C370.39338,206.010532 370.227966,205.732879 370.060047,205.457727 C370.014934,205.382686 369.987365,205.302642 369.93724,205.230102 L325.821989,139.621384 C317.135279,126.709256 302.649076,119 287.065129,119 L206.934871,119 C191.350924,119 176.864721,126.709256 168.178011,139.621384 L124.06276,205.230102 C124.012635,205.302642 123.98256,205.385187 123.937447,205.460229 C123.769527,205.735381 123.60662,206.013034 123.481307,206.310698 C123.388575,206.535822 123.335944,206.765949 123.268275,206.998578 C123.223162,207.161168 123.157999,207.313752 123.125418,207.481344 C123.040205,207.901576 122.997598,208.321808 123.000104,208.744542 L123.000104,292.951026 C123.000104,323.682991 370.999896,323.682991 370.999896,292.951026" id="Fill-15" fill="#A8B6BA"></path>
            <path d="M421,332.5 C421,344.92622 329.664876,355 217.001424,355 C104.332277,355 13,344.92622 13,332.5 C13,320.07378 104.332277,310 217.001424,310 C329.664876,310 421,320.07378 421,332.5" id="Fill-17" fill-opacity="0.5" fill="#CFD7DB"></path>
            <path d="M108.903247,338 C78.0803195,338 53,312.866314 53,281.971621 L53,197.286565 C53,193.816381 55.8098387,191 59.2719615,191 L169.8918,191 C171.567668,191 173.175799,191.67392 174.354928,192.870882 C175.531548,194.065329 176.183832,195.684748 176.163761,197.364518 C176.161253,197.585805 176.148709,197.804578 176.136165,198.020835 C176.136165,220.192292 194.242063,238.345376 216.5,238.345376 C238.757937,238.345376 256.868853,220.192292 256.868853,197.882531 C256.798607,195.747614 257.440856,194.110592 258.619984,192.896028 C259.801622,191.683978 261.419788,191 263.1082,191 L373.728039,191 C377.19267,191 380,193.816381 380,197.286565 L380,281.971621 C380,312.866314 354.924698,338 324.101771,338 L108.903247,338 Z" id="Fill-19" fill="#CFD7DB"></path>
            <path d="M66,204 L66,282.490074 C66,306.483223 85.4562663,326 109.36943,326 L324.633079,326 C348.546243,326 368,306.483223 368,282.490074 L368,204 L269.62703,204 C266.78375,230.608981 244.265876,251.402204 217,251.402204 C189.736634,251.402204 167.21876,230.608981 164.37548,204 L66,204 Z" id="Fill-21" fill="#FFFFFF"></path>
            <path d="M340.831451,204 L340.831451,282.491694 C340.831451,306.48282 321.169313,326 297,326 L326.168549,326 C350.337862,326 370,306.48282 370,282.491694 L370,204 L340.831451,204 Z" id="Fill-23" fill-opacity="0.5" fill="#CFD7DB"></path>
            <path d="M192,294 L247,294" id="Stroke-25" stroke="#FFB400" stroke-width="9" stroke-linecap="round" stroke-linejoin="round"></path>
        </g>
    </g>
</svg>