
<svg width="407px" height="406px" viewBox="0 0 407 406" version="1.1" xmlns="http://www.w3.org/2000/svg" xmlns:xlink="http://www.w3.org/1999/xlink">
    <!-- Generator: Sketch 46.2 (44496) - http://www.bohemiancoding.com/sketch -->
    <desc>Created with Sketch.</desc>
    <defs>
        <polygon id="path-1" points="0 407 409 407 409 0 0 0"></polygon>
    </defs>
    <g id="Page-1" stroke="none" stroke-width="1" fill="none" fill-rule="evenodd">
        <g transform="translate(-1.000000, -1.000000)">
            <polygon id="Stroke-1" stroke="#F5A824" stroke-width="3" stroke-linecap="round" stroke-linejoin="round" points="395 260 398.8896 267.1104 406 271 398.8896 274.8896 395 282 391.1104 274.8896 384 271 391.1104 267.1104"></polygon>
            <polygon id="Stroke-3" stroke="#F5A824" stroke-width="3" stroke-linecap="round" stroke-linejoin="round" points="140 3 143.8896 10.1104 151 14 143.8896 17.8896 140 25 136.1104 17.8896 129 14 136.1104 10.1104"></polygon>
            <polygon id="Stroke-5" stroke="#49E686" stroke-width="3" stroke-linecap="round" stroke-linejoin="round" points="240 30 243.8896 37.1104 251 41 243.8896 44.8896 240 52 236.1104 44.8896 229 41 236.1104 37.1104"></polygon>
            <polygon id="Stroke-7" stroke="#49E686" stroke-width="3" stroke-linecap="round" stroke-linejoin="round" points="14 214 17.8896 221.1104 25 225 17.8896 228.8896 14 236 10.1104 228.8896 3 225 10.1104 221.1104"></polygon>
            <path d="M387,335.5 C387,346.821667 304.621293,356 203.002568,356 C101.378707,356 19,346.821667 19,335.5 C19,324.178333 101.378707,315 203.002568,315 C304.621293,315 387,324.178333 387,335.5" id="Fill-9" fill-opacity="0.5" fill="#CFD7DB"></path>
            <path d="M303.753743,342 L101.244052,342 C84.5664979,342 71,328.430057 71,311.748267 L71,186.513548 C71,183.467864 73.4672373,181 76.5121477,181 L328.487852,181 C331.532763,181 334,183.467864 334,186.513548 L334,311.748267 C334,328.430057 320.431297,342 303.753743,342" id="Fill-11" fill="#CFD7DB"></path>
            <path d="M82,192 L82,311.767865 C82,322.373448 90.6249428,331 101.225838,331 L303.774162,331 C314.375057,331 323,322.373448 323,311.767865 L323,192 L82,192 Z" id="Fill-13" fill="#FFFFFF"></path>
            <path d="M294.328628,192 L294.328628,311.767865 C294.328628,322.373448 285.657572,331 275,331 L304.671372,331 C315.328944,331 324,322.373448 324,311.767865 L324,192 L294.328628,192 Z" id="Fill-15" fill-opacity="0.2" fill="#CFD7DB"></path>
            <path d="M236.462256,342 C233.403206,342 230.924512,339.522875 230.924512,336.465762 L230.924512,274.975945 C230.924512,260.139758 218.847799,248.068477 204.002215,248.068477 C189.156631,248.068477 177.075488,260.139758 177.075488,274.975945 L177.075488,336.465762 C177.075488,339.522875 174.596794,342 171.537744,342 C168.480909,342 166,339.522875 166,336.465762 L166,274.975945 C166,254.0366 183.047391,237 204,237 C224.952609,237 242,254.0366 242,274.975945 L242,336.465762 C242,339.522875 239.521306,342 236.462256,342" id="Fill-17" fill="#CFD7DB"></path>
            <path d="M203.501131,247 C188.337612,247 176,259.23691 176,274.274418 L176,331 L231,331 L231,274.274418 C231,259.23691 218.664651,247 203.501131,247" id="Fill-19" fill="#B8C4C9"></path>
            <path d="M204.22416,248 C200.979071,248 197.879383,248.606807 195,249.662695 C205.224344,253.413069 212.549477,263.172366 212.549477,274.625027 L212.549477,330 L231,330 L231,274.625027 C231,259.945555 218.988985,248 204.22416,248" id="Fill-21" fill="#A8B6BA"></path>
            <path d="M345.789791,192 L63.2044209,192 C57.9357789,192 53.1292209,189.100329 50.6596141,184.431594 C48.1900073,179.762858 48.4951153,174.147517 51.4511264,169.773626 L96.9586621,98.853623 C101.718791,91.4315303 109.819632,87 118.621337,87 L290.372875,87 C299.17458,87 307.270999,91.4315303 312.035549,98.853623 L357.616046,169.884469 C360.499096,174.147517 360.801993,179.765075 358.334597,184.431594 C355.867202,189.100329 351.058433,192 345.789791,192" id="Fill-23" fill="#CFD7DB"></path>
            <path d="M118.382487,99 C113.374703,99 108.765868,101.504068 106.054788,105.697998 L60.6144458,176.016005 C59.5851171,177.530297 60.1008835,178.840488 60.3675832,179.338668 C60.6320788,179.839043 61.4343821,181 63.1381745,181 L344.852427,181 C346.556219,181 347.356318,179.839043 347.620814,179.340863 C347.887514,178.842683 348.401076,177.530297 347.446688,176.127931 L301.933609,105.697998 C299.224734,101.504068 294.613694,99 289.605911,99 L118.382487,99 Z" id="Fill-25" fill="#FFFFFF"></path>
            <path d="M347.44248,176.127931 L301.661375,105.700193 C298.934198,101.506263 294.295779,99 289.258261,99 L256,99 C261.037518,99 265.675937,101.506263 268.403114,105.700193 L314.184219,176.127931 C315.146491,177.532491 314.627662,178.842683 314.359379,179.340863 C314.093313,179.841238 313.288463,181 311.574554,181 L344.832815,181 C346.546724,181 347.351574,179.841238 347.61764,179.340863 C347.885923,178.842683 348.404752,177.532491 347.44248,176.127931" id="Fill-27" fill-opacity="0.25" fill="#CFD7DB"></path>
            <path d="M185.490064,160 L72.5099357,160 C69.4662472,160 67,157.5382 67,154.5 C67,151.4618 69.4662472,149 72.5099357,149 L185.490064,149 C188.533753,149 191,151.4618 191,154.5 C191,157.5382 188.533753,160 185.490064,160" id="Fill-29" fill="#CFD7DB"></path>
            <path d="M156.5,131 L90.5,131 C87.4618,131 85,128.5382 85,125.5 C85,122.4618 87.4618,120 90.5,120 L156.5,120 C159.5382,120 162,122.4618 162,125.5 C162,128.5382 159.5382,131 156.5,131" id="Fill-35" fill="#CFD7DB"></path>
            <mask id="mask-2" fill="white">
                <use xlink:href="#path-1"></use>
            </mask>
            <g id="Clip-38"></g>
            <polygon id="Fill-37" fill="#E9EBED" mask="url(#mask-2)" points="82 202 323 202 323 192 82 192"></polygon>
            <path d="M263,280.5 L300.553295,280.5" id="Stroke-39" stroke="#FFB400" stroke-width="5" stroke-linecap="round" stroke-linejoin="round" mask="url(#mask-2)"></path>
            <path d="M203,375 L203,404" id="Stroke-40" stroke="#CFD7DB" stroke-width="8" stroke-linecap="round" mask="url(#mask-2)"></path>
            <path d="M228,369 L245,394" id="Stroke-41" stroke="#CFD7DB" stroke-width="8" stroke-linecap="round" mask="url(#mask-2)"></path>
            <path d="M179,369 L162,394" id="Stroke-42" stroke="#CFD7DB" stroke-width="8" stroke-linecap="round" mask="url(#mask-2)"></path>
        </g>
    </g>
</svg>