
<svg width="380px" height="319px" viewBox="0 0 380 319" version="1.1" xmlns="http://www.w3.org/2000/svg" xmlns:xlink="http://www.w3.org/1999/xlink">
    <!-- Generator: Sketch 46.2 (44496) - http://www.bohemiancoding.com/sketch -->
    <desc>Created with Sketch.</desc>
    <defs>
        <polygon id="path-1" points="333.381997 37 0.0151215278 37 0.0151215278 0.32768125 333.381997 0.32768125 333.381997 37"></polygon>
    </defs>
    <g id="Page-1" stroke="none" stroke-width="1" fill="none" fill-rule="evenodd">
        <g transform="translate(-19.000000, 3.000000)">
            <polygon id="Stroke-1" stroke="#F5A824" stroke-width="5" stroke-linecap="round" stroke-linejoin="round" points="384.5 222 388.5664 229.4336 396 233.5 388.5664 237.5664 384.5 245 380.4336 237.5664 373 233.5 380.4336 229.4336"></polygon>
            <polygon id="Stroke-3" stroke="#49E686" stroke-width="5" stroke-linecap="round" stroke-linejoin="round" points="318.5 0 322.5664 7.4336 330 11.5 322.5664 15.5664 318.5 23 314.4336 15.5664 307 11.5 314.4336 7.4336"></polygon>
            <polygon id="Stroke-5" stroke="#49E686" stroke-width="5" stroke-linecap="round" stroke-linejoin="round" points="33.5 181 37.5664 188.4336 45 192.5 37.5664 196.5664 33.5 204 29.4336 196.5664 22 192.5 29.4336 188.4336"></polygon>
            <path d="M102,73 L73,58" id="Stroke-7" stroke="#CFD7DB" stroke-width="10" stroke-linecap="round"></path>
            <path d="M121,51 L103,24" id="Stroke-9" stroke="#CFD7DB" stroke-width="10" stroke-linecap="round"></path>
            <path d="M147.504,41 L146,8" id="Stroke-11" stroke="#CFD7DB" stroke-width="10" stroke-linecap="round"></path>
            <g id="Group-15" transform="translate(51.000000, 279.000000)">
                <mask id="mask-2" fill="white">
                    <use xlink:href="#path-1"></use>
                </mask>
                <g id="Clip-14" opacity="0.5"></g>
                <path d="M333.381997,18.6634937 C333.381997,28.7899312 258.756094,37.0016187 166.698559,37.0016187 C74.6410243,37.0016187 0.0151215278,28.7899312 0.0151215278,18.6634937 C0.0151215278,8.53705625 74.6410243,0.32768125 166.698559,0.32768125 C258.756094,0.32768125 333.381997,8.53705625 333.381997,18.6634937" id="Fill-13" fill="#CFD7DB" opacity="0.5" mask="url(#mask-2)"></path>
            </g>
            <path d="M137.449665,304 C133.035187,304 128.650977,302.615408 124.904724,299.895092 C118.276022,295.080434 115.016387,287.075398 116.40406,279.00055 L129.978115,199.892637 L72.4711553,143.866689 C66.6014827,138.149138 64.5292857,129.757812 67.0624883,121.964536 C69.5933627,114.175915 76.2057666,108.604968 84.3176029,107.427483 L163.78985,95.8853372 L199.331521,23.907492 C202.95903,16.5633363 210.304852,12 218.500508,12 C226.693835,12 234.039657,16.5633363 237.667166,23.907492 L273.208837,95.8853372 L352.681084,107.427483 C360.792921,108.604968 367.405324,114.175915 369.938527,121.964536 C372.469401,129.755485 370.399533,138.146811 364.52986,143.866689 L307.020573,199.892637 L320.596955,279.00055 C321.982301,287.075398 318.722665,295.082762 312.093963,299.895092 C305.460604,304.709749 296.838868,305.33107 289.58385,301.524024 L218.500508,264.170289 L147.414837,301.524024 C144.262304,303.178553 140.846671,304 137.449665,304" id="Fill-19" fill="#CFD7DB"></path>
            <path d="M217.999286,251.367912 C218.929179,251.367912 219.861402,251.591526 220.709726,252.036424 L294.57212,290.849722 C297.935116,292.615339 301.768885,292.333493 304.8359,290.106672 C307.902916,287.879851 309.350192,284.318336 308.711619,280.582122 L294.602418,198.378432 C294.276139,196.489361 294.90539,194.563022 296.278089,193.225998 L356.035943,135.007216 C358.753374,132.363448 359.673945,128.631893 358.499343,125.026121 C357.327072,121.420349 354.388238,118.944292 350.636038,118.399233 L268.055024,106.405614 C266.155619,106.128426 264.514906,104.938149 263.666582,103.219118 L226.73422,28.427293 C225.056218,25.0288293 221.791105,23 217.999286,23 C214.207467,23 210.942355,25.0288293 209.264352,28.427293 L172.33199,103.219118 C171.483667,104.938149 169.842953,106.128426 167.943548,106.405614 L85.3625337,118.399233 C81.6103344,118.944292 78.6714999,121.420349 77.4992289,125.026121 C76.326958,128.629564 77.2475286,132.361119 79.9626294,135.007216 L139.720483,193.225998 C141.093182,194.563022 141.722433,196.489361 141.396155,198.378432 L127.289283,280.582122 C126.64838,284.318336 128.097987,287.879851 131.162672,290.106672 C134.229687,292.333493 138.063456,292.615339 141.426452,290.849722 L215.288846,252.036424 C216.13717,251.591526 217.069393,251.367912 217.999286,251.367912" id="Fill-21" fill="#FFFFFF"></path>
            <path d="M197,155.001179 C197,158.866094 193.866094,162 189.998821,162 C186.133906,162 183,158.866094 183,155.001179 C183,151.133906 186.133906,148 189.998821,148 C193.866094,148 197,151.133906 197,155.001179" id="Fill-25" fill="#FFB400"></path>
            <path d="M253,155.001179 C253,158.866094 249.866094,162 245.998821,162 C242.133906,162 239,158.866094 239,155.001179 C239,151.133906 242.133906,148 245.998821,148 C249.866094,148 253,151.133906 253,155.001179" id="Fill-27" fill="#FFB400"></path>
            <path d="M192,190 L247,190" id="Stroke-25" stroke="#FFB400" stroke-width="9" stroke-linecap="round" stroke-linejoin="round"></path>
            <path d="M356.034566,135.028991 C358.751302,132.383238 359.674759,128.652168 358.49945,125.046864 C357.326473,121.443889 354.385869,118.968153 350.63141,118.423166 L285.711912,109 C272.422059,172.041583 216.431644,219.374009 149.355081,219.374009 C145.442048,219.374009 141.580319,219.171385 137.751237,218.85464 L127.150136,280.584992 C126.506514,284.32072 127.956995,287.881773 131.025857,290.108305 C134.092388,292.334836 137.930798,292.614317 141.293487,290.848929 L215.200368,252.043001 C216.051534,251.595832 216.981987,251.374576 217.914772,251.374576 C218.845225,251.374576 219.775678,251.595832 220.626844,252.043001 L294.533725,290.848929 C297.896415,292.614317 301.734824,292.334836 304.801355,290.108305 C307.872549,287.881773 309.320698,284.32072 308.679408,280.582663 L294.56404,198.391977 C294.237566,196.503152 294.867196,194.574734 296.238389,193.237883 L356.034566,135.028991 Z" id="Fill-29" fill="#CFD7DB" opacity="0.25"></path>
        </g>
    </g>
</svg>