
<svg width="402px" height="353px" viewBox="0 0 402 353" version="1.1" xmlns="http://www.w3.org/2000/svg" xmlns:xlink="http://www.w3.org/1999/xlink">
    <!-- Generator: Sketch 46.2 (44496) - http://www.bohemiancoding.com/sketch -->
    <desc>Created with Sketch.</desc>
    <defs></defs>
    <g id="Page-1" stroke="none" stroke-width="1" fill="none" fill-rule="evenodd">
        <g id="Group-2" transform="translate(2.000000, 1.000000)">
            <g id="Page-1">
                <g id="Group-15" transform="translate(0.000000, 0.683662)">
                    <polygon id="Stroke-1" stroke="#F5A824" stroke-width="3" stroke-linecap="round" stroke-linejoin="round" points="370.144114 217.648085 374.571898 225.741839 382.666127 230.169362 374.571898 234.596885 370.144114 242.690639 365.71633 234.596885 357.622101 230.169362 365.71633 225.741839"></polygon>
                    <polygon id="Stroke-3" stroke="#F5A824" stroke-width="3" stroke-linecap="round" stroke-linejoin="round" points="12.6749652 231.405713 17.1027488 239.499466 25.1969777 243.926989 17.1027488 248.354513 12.6749652 256.448266 8.24718151 248.354513 0.152952579 243.926989 8.24718151 239.499466"></polygon>
                    <polygon id="Stroke-5" stroke="#49E686" stroke-width="3" stroke-linecap="round" stroke-linejoin="round" points="66.191793 0.567965106 70.6195766 8.6617183 78.7138055 13.0892417 70.6195766 17.5167651 66.191793 25.6105183 61.7640093 17.5167651 53.6697804 13.0892417 61.7640093 8.6617183"></polygon>
                    <path d="M344.999662,129.248373 L370.24404,153.609769" id="Stroke-7" stroke="#CFD7DB" stroke-width="8" stroke-linecap="round"></path>
                    <path d="M361.207404,102.791166 L395.252252,111.268071" id="Stroke-9" stroke="#CFD7DB" stroke-width="8" stroke-linecap="round"></path>
                    <path d="M362.014573,71.775213 L395.738857,62.0937619" id="Stroke-11" stroke="#CFD7DB" stroke-width="8" stroke-linecap="round"></path>
                    <path d="M196.541686,350.595745 C97.4374701,350.595745 17.1012462,341.705638 17.1012462,330.739504 C17.1012462,319.77337 97.4374701,310.883264 196.541686,310.883264 C295.640894,310.883264 375.977118,319.77337 375.977118,330.739504 C375.977118,341.705638 295.640894,350.595745 196.541686,350.595745 Z" id="Fill-13" fill-opacity="0.5" fill="#CFD7DB"></path>
                </g>
                <polygon id="Fill-16" fill="#A8B6BA" points="309.715636 113.426989 140.618378 112.287553 260.779611 82.6947679"></polygon>
                <g id="Group-48" transform="translate(61.105660, 23.221960)">
                    <path d="M203.012319,89.8982583 L248.609976,90.2062817 L199.673951,59.4740604 L162.493591,68.6296179 C178.033408,72.8818434 192.69919,80.6650689 203.012319,89.8982583" id="Fill-17" fill="#B8C4C9"></path>
                    <path d="M205.751384,312.496756 L68.3047653,312.496756 C50.5310206,312.496756 35.7124709,298.603147 34.5654546,280.868011 L22.6069326,95.7133896 C22.4967389,93.9879577 23.1028043,92.2900726 24.2873867,91.0279279 C25.4719691,89.7657832 27.1248747,89.0495662 28.8554169,89.0495662 L244.940275,89.0495662 C246.670817,89.0495662 248.321218,89.7657832 249.505801,91.0254236 C250.687878,92.285064 251.298953,93.9804449 251.191263,95.7058768 L239.495704,280.82043 C238.371227,298.583113 223.550173,312.496756 205.751384,312.496756" id="Fill-19" fill="#CFD7DB"></path>
                    <path d="M35.5351592,101.570843 L47.0654284,280.061641 C47.7841919,291.228115 57.1130913,299.975479 68.3052662,299.975479 L205.751885,299.975479 C216.956582,299.975479 226.29049,291.215594 226.996732,280.03159 L238.271552,101.570843 L35.5351592,101.570843 Z" id="Fill-21" fill="#FFFFFF"></path>
                    <path d="M213.242553,101.570843 L201.967733,280.03159 C201.261491,291.215594 191.927583,299.975479 180.722886,299.975479 L205.766911,299.975479 C216.971608,299.975479 226.305516,291.215594 227.011758,280.03159 L238.286578,101.570843 L213.242553,101.570843 Z" id="Fill-23" fill-opacity="0.25" fill="#CFD7DB"></path>
                    <path d="M91.189745,247.372845 C87.7311652,247.372845 84.9287387,244.570583 84.9287387,241.112206 L84.9287387,153.475791 C84.9287387,150.017415 87.7311652,147.215153 91.189745,147.215153 C94.6483249,147.215153 97.4507513,150.017415 97.4507513,153.475791 L97.4507513,241.112206 C97.4507513,244.570583 94.6483249,247.372845 91.189745,247.372845" id="Fill-25" fill="#CFD7DB"></path>
                    <path d="M182.6077,247.372845 C179.14912,247.372845 176.346693,244.570583 176.346693,241.112206 L176.346693,153.475791 C176.346693,150.017415 179.14912,147.215153 182.6077,147.215153 C186.066279,147.215153 188.868706,150.017415 188.868706,153.475791 L188.868706,241.112206 C188.868706,244.570583 186.066279,247.372845 182.6077,247.372845" id="Fill-27" fill="#CFD7DB"></path>
                    <path d="M136.899849,247.372845 C133.441269,247.372845 130.638843,244.570583 130.638843,241.112206 L130.638843,153.475791 C130.638843,150.017415 133.441269,147.215153 136.899849,147.215153 C140.358429,147.215153 143.160856,150.017415 143.160856,153.475791 L143.160856,241.112206 C143.160856,244.570583 140.358429,247.372845 136.899849,247.372845" id="Fill-29" fill="#CFD7DB"></path>
                    <polygon id="Fill-38" fill="#E9EBED" points="237.570069 112.699253 36.2536723 112.699253 35.5349088 101.570342 238.271301 101.570342"></polygon>
                    <path d="M86.4571756,42.3810153 L85.5455731,38.8224685 C82.8858976,28.4172877 87.9798523,18.1273026 96.9305869,15.8384132 L137.036089,5.58599191 C145.984319,3.29960681 155.390855,9.88078979 158.053035,20.2859706 L158.962133,23.8470217" id="Stroke-40" stroke="#FFB400" stroke-width="8" stroke-linecap="round" stroke-linejoin="round"></path>
                    <path d="M256.582992,45.5418864 L12.7543626,105.591425 C9.39595887,106.417829 6.00249346,104.366844 5.17604063,101.008637 L0.798345031,83.2384417 C-2.67025245,69.1595183 5.96492742,54.885263 20.0446784,51.4168694 L224.967414,0.95111617 C239.047165,-2.51727745 253.319755,6.11489064 256.788353,20.193814 L261.166048,37.966514 C261.992501,41.3222162 259.941395,44.7154821 256.582992,45.5418864" id="Fill-42" fill="#CFD7DB"></path>
                    <path d="M15.8375326,91.9352196 L247.509792,34.8807706 L244.629729,23.1884026 C242.814037,15.8133706 235.335891,11.2931898 227.960426,13.1087749 L23.0376898,63.5745281 C15.6647288,65.3901132 11.1417779,72.8678196 12.9574697,80.2428515 L15.8375326,91.9352196 Z" id="Fill-44" fill="#FFFFFF"></path>
                    <path d="M227.960927,13.1087749 L203.340145,19.171577 C210.713106,17.3559919 218.193757,21.8761728 220.009449,29.2512047 L222.889511,40.9435728 L247.510293,34.8807706 L244.63023,23.1884026 C242.814538,15.8133706 235.333888,11.2931898 227.960927,13.1087749" id="Fill-46" fill-opacity="0.25" fill="#CFD7DB"></path>
                </g>
            </g>
        </g>
    </g>
</svg>