
<svg width="53px" height="54px" viewBox="0 0 53 54" version="1.1" xmlns="http://www.w3.org/2000/svg" xmlns:xlink="http://www.w3.org/1999/xlink">
    <!-- Generator: Sketch 46.2 (44496) - http://www.bohemiancoding.com/sketch -->
    <desc>Created with Sketch.</desc>
    <defs></defs>
    <g id="Page-1" stroke="none" stroke-width="1" fill="none" fill-rule="evenodd" stroke-linecap="round" stroke-linejoin="round">
        <g id="Group-4" transform="translate(2.000000, 2.000000)" stroke-width="3" stroke="#242B3A">
            <g id="-g-Group-3">
                <path d="M44.4379167,49.6509375 L5.01291667,49.6509375 C2.33791667,49.6509375 0.169166667,47.4832292 0.169166667,44.8082292 L0.169166667,24.3582292 C0.169166667,21.6821875 2.33791667,19.5134375 5.01291667,19.5134375 L44.4379167,19.5134375 C47.1129167,19.5134375 49.2816667,21.6821875 49.2816667,24.3582292 L49.2816667,44.8082292 C49.2816667,47.4832292 47.1129167,49.6509375 44.4379167,49.6509375 Z" id="Stroke-1"></path>
                <path d="M37.9538542,19.51375 L37.9538542,13.3970833 C37.9538542,6.091875 32.0309375,0.17 24.7257292,0.17 C17.4194792,0.17 11.4976042,6.091875 11.4976042,13.3970833 L11.4976042,19.51375" id="Stroke-3"></path>
                <path d="M27.7391667,31.8438542 C27.7391667,33.5084375 26.3902083,34.8573958 24.725625,34.8573958 C23.0610417,34.8573958 21.7120833,33.5084375 21.7120833,31.8438542 C21.7120833,30.1792708 23.0610417,28.8292708 24.725625,28.8292708 C26.3902083,28.8292708 27.7391667,30.1792708 27.7391667,31.8438542 Z" id="Stroke-5"></path>
                <path d="M25,35 L25,40.446875" id="Stroke-7"></path>
            </g>
        </g>
    </g>
</svg>