
<svg width="67px" height="61px" viewBox="0 0 67 61" version="1.1" xmlns="http://www.w3.org/2000/svg" xmlns:xlink="http://www.w3.org/1999/xlink">
    <!-- Generator: Sketch 46.2 (44496) - http://www.bohemiancoding.com/sketch -->
    <desc>Created with Sketch.</desc>
    <defs></defs>
    <g id="Page-1" stroke="none" stroke-width="1" fill="none" fill-rule="evenodd" stroke-linecap="round" stroke-linejoin="round">
        <g id="Group-12" transform="translate(2.000000, 2.000000)" stroke-width="3" stroke="#242B3A">
            <g id="Group-5">
                <path d="M52.9711186,57.0665763 L10.2375593,57.0665763 C6.79077966,57.0665763 3.90535593,54.4577627 3.55281356,51.0299661 L0.298576271,18.731661 C-0.0241355932,15.5642034 2.46264407,12.811661 5.64637288,12.811661 L57.5623051,12.811661 C60.7460339,12.811661 63.2328136,15.5642034 62.9101017,18.731661 L59.6531525,51.0299661 C59.303322,54.4577627 56.4178983,57.0665763 52.9711186,57.0665763 Z" id="Stroke-1"></path>
                <path d="M51.6564068,4.45016949 L28.4184407,4.45016949 L24.6109831,1.43457627 C23.6618305,0.680677966 22.4848814,0.271186441 21.272678,0.271186441 L11.5506441,0.271186441 C8.58386441,0.271186441 6.17572881,2.67932203 6.17572881,5.64338983 L6.17572881,12.8108475 L57.031322,12.8108475 L57.031322,9.82237288 C57.031322,6.85830508 54.6258983,4.45016949 51.6564068,4.45016949 Z" id="Stroke-3"></path>
                <path d="M31.4576271,26.4390508 L31.4576271,43.0492203" id="Stroke-5"></path>
                <polyline id="Stroke-7" points="39.8738983 36.1317966 31.6054237 44.4029831 23.3342373 36.1317966"></polyline>
            </g>
        </g>
    </g>
</svg>