
<svg width="71px" height="72px" viewBox="0 0 71 72" version="1.1" xmlns="http://www.w3.org/2000/svg" xmlns:xlink="http://www.w3.org/1999/xlink">
    <!-- Generator: Sketch 46.2 (44496) - http://www.bohemiancoding.com/sketch -->
    <desc>Created with Sketch.</desc>
    <defs></defs>
    <g id="Page-1" stroke="none" stroke-width="1" fill="none" fill-rule="evenodd" stroke-linecap="round" stroke-linejoin="round">
        <g id="Group" transform="translate(2.000000, 2.000000)" stroke="#1A1E26" stroke-width="3">
            <path d="M49.4902508,68.1038119 L17.8542633,68.1038119 C14.4841066,68.1038119 11.6926959,65.4850658 11.4752665,62.1213041 L8.25539185,17.6857555 L59.0155799,17.6857555 L55.8692476,62.1117116 C55.6582132,65.4818683 52.863605,68.1038119 49.4902508,68.1038119 Z" id="Stroke-1"></path>
            <path d="M66.8484765,17.6870345 L0.426971787,17.6870345 L0.426971787,13.9395737 C0.426971787,10.4095423 3.28872727,7.54458934 6.82195611,7.54458934 L60.4534922,7.54458934 C63.9835235,7.54458934 66.8484765,10.4095423 66.8484765,13.9395737 L66.8484765,17.6870345 Z" id="Stroke-3"></path>
            <path d="M25.1034483,30.8923574 L25.1034483,54.0741755" id="Stroke-5"></path>
            <path d="M42.7241379,30.8923574 L42.7241379,54.0741755" id="Stroke-7"></path>
            <path d="M33.8275862,30.8923574 L33.8275862,54.0741755" id="Stroke-9"></path>
            <path d="M44.5472476,6.82067712 L44.5472476,6.82067712 C44.5472476,3.29064577 41.6822947,0.42569279 38.1522633,0.42569279 L29.1225455,0.42569279 C25.5893166,0.42569279 22.7275611,3.29064577 22.7275611,6.82067712" id="Stroke-11"></path>
        </g>
    </g>
</svg>